<svg xmlns="http://www.w3.org/2000/svg" viewBox="0 0 1200 900" width="1200" height="900" role="img" aria-label="Blueprint illustration of a drum spinner combat robot">
  <defs>
    <linearGradient id="bg-gradient" x1="0" y1="0" x2="1" y2="1">
      <stop offset="0%" stop-color="#0b2340"/>
      <stop offset="55%" stop-color="#0f3458"/>
      <stop offset="100%" stop-color="#08182d"/>
    </linearGradient>
    <radialGradient id="vignette" cx="50%" cy="45%" r="70%">
      <stop offset="55%" stop-color="#000000" stop-opacity="0"/>
      <stop offset="100%" stop-color="#01070f" stop-opacity="0.46"/>
    </radialGradient>
    <pattern id="grid-major" width="120" height="120" patternUnits="userSpaceOnUse">
      <path d="M120 0H0V120" fill="none" stroke="#8fe7ff" stroke-opacity="0.14" stroke-width="1"/>
    </pattern>
    <pattern id="grid-minor" width="24" height="24" patternUnits="userSpaceOnUse">
      <path d="M24 0H0V24" fill="none" stroke="#8fe7ff" stroke-opacity="0.06" stroke-width="1"/>
    </pattern>
    <filter id="glow" x="-20%" y="-20%" width="140%" height="140%">
      <feGaussianBlur stdDeviation="3.5" result="blur"/>
      <feMerge>
        <feMergeNode in="blur"/>
        <feMergeNode in="SourceGraphic"/>
      </feMerge>
    </filter>
    <linearGradient id="body-fill" x1="0" y1="0" x2="1" y2="1">
      <stop offset="0%" stop-color="#133b63" stop-opacity="0.92"/>
      <stop offset="100%" stop-color="#0d2744" stop-opacity="0.72"/>
    </linearGradient>
    <linearGradient id="weapon-fill" x1="0" y1="0" x2="1" y2="0">
      <stop offset="0%" stop-color="#1d658f" stop-opacity="0.94"/>
      <stop offset="100%" stop-color="#10324e" stop-opacity="0.78"/>
    </linearGradient>
  </defs>

  <rect width="1200" height="900" fill="url(#bg-gradient)"/>
  <rect width="1200" height="900" fill="url(#grid-minor)"/>
  <rect width="1200" height="900" fill="url(#grid-major)"/>

  <g stroke="#b6f4ff" stroke-linecap="round" stroke-linejoin="round" fill="none">
    <g opacity="0.48">
      <path d="M96 676H1104" stroke-width="2" stroke-dasharray="10 14"/>
      <path d="M250 132V774" stroke-width="1.6" stroke-dasharray="7 15"/>
      <path d="M862 120V768" stroke-width="1.6" stroke-dasharray="7 15"/>
      <circle cx="360" cy="318" r="84" stroke-width="1.2" stroke-dasharray="7 11"/>
      <circle cx="884" cy="278" r="118" stroke-width="1.4" stroke-dasharray="8 12"/>
      <circle cx="884" cy="278" r="74" stroke-width="1.1" stroke-dasharray="6 10"/>
      <path d="M120 554C238 486 360 446 516 438" stroke-width="1.4" stroke-dasharray="7 12"/>
      <path d="M736 538C862 506 980 446 1082 352" stroke-width="1.4" stroke-dasharray="7 12"/>
    </g>
    <g opacity="0.32">
      <path d="M126 210H310" stroke-width="1.2"/>
      <path d="M916 694H1080" stroke-width="1.2"/>
      <path d="M1032 336V516" stroke-width="1.2"/>
      <circle cx="1032" cy="336" r="5" fill="#b6f4ff" stroke="none"/>
      <circle cx="166" cy="610" r="5" fill="#b6f4ff" stroke="none"/>
      <path d="M166 610V744" stroke-width="1.2"/>
    </g>
  </g>

  <g filter="url(#glow)">
    <g transform="translate(140 160)">
      <circle cx="610" cy="414" r="134" fill="#0f2b45" stroke="#d0fbff" stroke-width="4" opacity="0.9"/>
      <circle cx="610" cy="414" r="96" fill="none" stroke="#8fe7ff" stroke-width="2.2" opacity="0.72"/>
      <circle cx="610" cy="414" r="24" fill="#0d2840" stroke="#d0fbff" stroke-width="4"/>
      <circle cx="610" cy="414" r="8" fill="#d0fbff" stroke="none"/>

      <path d="M304 438L346 356L714 356L742 390L742 438L714 470L346 470Z"
        fill="url(#body-fill)" stroke="#d0fbff" stroke-width="4"/>
      <path d="M372 356L326 322L388 336L420 356" fill="#102e4a" stroke="#d0fbff" stroke-width="3"/>
      <path d="M372 470L326 504L388 490L420 470" fill="#102e4a" stroke="#d0fbff" stroke-width="3"/>
      <path d="M248 446L312 358L358 358L358 476L312 476Z"
        fill="url(#weapon-fill)" stroke="#d0fbff" stroke-width="4"/>

      <circle cx="302" cy="417" r="78" fill="url(#weapon-fill)" stroke="#d0fbff" stroke-width="4"/>
      <circle cx="302" cy="417" r="38" fill="none" stroke="#9fefff" stroke-width="2" opacity="0.88"/>
      <path d="M214 374L340 374L380 417L340 460L214 460Z"
        fill="#1e739d" stroke="#d0fbff" stroke-width="3"/>

      <path d="M334 356L334 470" stroke="#8be7ff" stroke-width="2" opacity="0.75"/>
      <path d="M436 356L436 470" stroke="#8be7ff" stroke-width="2" opacity="0.75"/>
      <path d="M538 356L538 470" stroke="#8be7ff" stroke-width="2" opacity="0.75"/>
      <path d="M640 356L640 470" stroke="#8be7ff" stroke-width="2" opacity="0.75"/>
      <path d="M714 356L714 470" stroke="#8be7ff" stroke-width="2" opacity="0.75"/>

      <path d="M310 392H716" stroke="#c3f8ff" stroke-width="1.6" stroke-dasharray="6 10" opacity="0.75"/>
      <path d="M310 432H716" stroke="#c3f8ff" stroke-width="1.2" stroke-dasharray="4 8" opacity="0.52"/>

      <path d="M302 210V624" stroke="#8fe7ff" stroke-width="2" opacity="0.4" stroke-dasharray="8 10"/>
      <path d="M610 240V588" stroke="#8fe7ff" stroke-width="2" opacity="0.46" stroke-dasharray="8 10"/>
      <path d="M434 368H786" stroke="#8fe7ff" stroke-width="2" opacity="0.46" stroke-dasharray="8 10"/>
      <circle cx="610" cy="414" r="116" fill="none" stroke="#8fe7ff" stroke-width="1.4" opacity="0.45" stroke-dasharray="6 10"/>

      <path d="M714 356L786 382L816 428" stroke="#d0fbff" stroke-width="4"/>
      <path d="M776 382H830" stroke="#d0fbff" stroke-width="3"/>
      <path d="M798 426H852" stroke="#d0fbff" stroke-width="3"/>

      <path d="M280 500C368 540 486 562 628 562C720 562 800 534 860 486"
        stroke="#b6f4ff" stroke-width="2.4" opacity="0.64"/>
      <path d="M286 518C392 566 516 588 654 588C736 588 812 560 870 500"
        stroke="#8fe7ff" stroke-width="1.4" stroke-dasharray="7 12" opacity="0.5"/>

      <path d="M214 418H136" stroke="#9fefff" stroke-width="2" opacity="0.7"/>
      <path d="M894 430H838" stroke="#9fefff" stroke-width="2" opacity="0.7"/>
      <path d="M610 280V236" stroke="#9fefff" stroke-width="2" opacity="0.7"/>
      <path d="M610 548V592" stroke="#9fefff" stroke-width="2" opacity="0.7"/>
    </g>
  </g>

  <rect width="1200" height="900" fill="url(#vignette)"/>
</svg>
