<svg xmlns="http://www.w3.org/2000/svg" viewBox="0 0 1200 900" width="1200" height="900" role="img" aria-label="Blueprint illustration of a horizontal spinner combat robot">
  <defs>
    <linearGradient id="bg-gradient" x1="0" y1="0" x2="1" y2="1">
      <stop offset="0%" stop-color="#0b2340"/>
      <stop offset="55%" stop-color="#0f3458"/>
      <stop offset="100%" stop-color="#08182d"/>
    </linearGradient>
    <radialGradient id="vignette" cx="50%" cy="45%" r="70%">
      <stop offset="55%" stop-color="#000000" stop-opacity="0"/>
      <stop offset="100%" stop-color="#01070f" stop-opacity="0.46"/>
    </radialGradient>
    <pattern id="grid-major" width="120" height="120" patternUnits="userSpaceOnUse">
      <path d="M120 0H0V120" fill="none" stroke="#8fe7ff" stroke-opacity="0.14" stroke-width="1"/>
    </pattern>
    <pattern id="grid-minor" width="24" height="24" patternUnits="userSpaceOnUse">
      <path d="M24 0H0V24" fill="none" stroke="#8fe7ff" stroke-opacity="0.06" stroke-width="1"/>
    </pattern>
    <filter id="glow" x="-20%" y="-20%" width="140%" height="140%">
      <feGaussianBlur stdDeviation="3.5" result="blur"/>
      <feMerge>
        <feMergeNode in="blur"/>
        <feMergeNode in="SourceGraphic"/>
      </feMerge>
    </filter>
    <linearGradient id="body-fill" x1="0" y1="0" x2="1" y2="1">
      <stop offset="0%" stop-color="#133b63" stop-opacity="0.92"/>
      <stop offset="100%" stop-color="#0d2744" stop-opacity="0.72"/>
    </linearGradient>
    <linearGradient id="weapon-fill" x1="0" y1="0" x2="1" y2="0">
      <stop offset="0%" stop-color="#1d658f" stop-opacity="0.94"/>
      <stop offset="100%" stop-color="#10324e" stop-opacity="0.78"/>
    </linearGradient>
  </defs>

  <rect width="1200" height="900" fill="url(#bg-gradient)"/>
  <rect width="1200" height="900" fill="url(#grid-minor)"/>
  <rect width="1200" height="900" fill="url(#grid-major)"/>

  <g stroke="#b6f4ff" stroke-linecap="round" stroke-linejoin="round" fill="none">
    <g opacity="0.48">
      <path d="M106 450H1094" stroke-width="2" stroke-dasharray="10 14"/>
      <path d="M600 110V790" stroke-width="1.6" stroke-dasharray="7 15"/>
      <circle cx="274" cy="248" r="86" stroke-width="1.2" stroke-dasharray="7 11"/>
      <circle cx="938" cy="224" r="110" stroke-width="1.4" stroke-dasharray="8 12"/>
      <circle cx="938" cy="224" r="68" stroke-width="1.1" stroke-dasharray="6 10"/>
      <path d="M158 682C268 588 388 530 532 506" stroke-width="1.4" stroke-dasharray="7 12"/>
      <path d="M742 510C874 472 996 404 1082 314" stroke-width="1.4" stroke-dasharray="7 12"/>
    </g>
    <g opacity="0.32">
      <path d="M134 176H332" stroke-width="1.2"/>
      <path d="M926 694H1084" stroke-width="1.2"/>
      <path d="M1040 326V512" stroke-width="1.2"/>
      <circle cx="1040" cy="326" r="5" fill="#b6f4ff" stroke="none"/>
      <circle cx="164" cy="624" r="5" fill="#b6f4ff" stroke="none"/>
      <path d="M164 624V748" stroke-width="1.2"/>
    </g>
  </g>

  <g filter="url(#glow)">
    <g transform="translate(130 160)">
      <path d="M250 364L342 292L408 292L408 204L738 204L812 268L812 468L738 532L408 532L408 444L342 444L250 372Z"
        fill="url(#body-fill)" stroke="#d0fbff" stroke-width="4"/>

      <path d="M180 366L246 312L246 424L180 372Z"
        fill="#102e4a" stroke="#d0fbff" stroke-width="4" opacity="0.84"/>

      <circle cx="250" cy="368" r="132" fill="url(#weapon-fill)" stroke="#d0fbff" stroke-width="4"/>
      <circle cx="250" cy="368" r="96" fill="none" stroke="#9fefff" stroke-width="2.6" opacity="0.88"/>
      <circle cx="250" cy="368" r="24" fill="#0d2840" stroke="#d0fbff" stroke-width="4"/>
      <circle cx="250" cy="368" r="8" fill="#d0fbff" stroke="none"/>

      <path d="M118 350L382 350L382 386L118 386Z"
        fill="#1e739d" stroke="#d0fbff" stroke-width="4"/>
      <path d="M118 350H382" stroke="#c3f8ff" stroke-width="2" opacity="0.82"/>
      <path d="M146 368H354" stroke="#8fe7ff" stroke-width="1.8" opacity="0.72" stroke-dasharray="8 8"/>

      <path d="M250 236V500" stroke="#8fe7ff" stroke-width="2" opacity="0.65" stroke-dasharray="8 10"/>
      <path d="M118 368H382" stroke="#8fe7ff" stroke-width="2" opacity="0.65" stroke-dasharray="8 10"/>
      <circle cx="250" cy="368" r="114" fill="none" stroke="#8fe7ff" stroke-width="1.4" opacity="0.45" stroke-dasharray="6 10"/>

      <path d="M344 328L424 328L424 244L716 244L770 296L770 440L716 492L424 492L424 408L344 408L300 368Z"
        stroke="#9fefff" stroke-width="2.4" opacity="0.88"/>

      <path d="M408 204L408 532" stroke="#8be7ff" stroke-width="2" opacity="0.75"/>
      <path d="M512 204L512 532" stroke="#8be7ff" stroke-width="2" opacity="0.75"/>
      <path d="M620 204L620 532" stroke="#8be7ff" stroke-width="2" opacity="0.75"/>
      <path d="M728 204L728 532" stroke="#8be7ff" stroke-width="2" opacity="0.75"/>

      <path d="M354 320H808" stroke="#c3f8ff" stroke-width="1.6" stroke-dasharray="6 10" opacity="0.75"/>
      <path d="M354 416H808" stroke="#c3f8ff" stroke-width="1.2" stroke-dasharray="4 8" opacity="0.52"/>

      <path d="M738 204L826 274L826 462L738 532" stroke="#d0fbff" stroke-width="4"/>
      <path d="M810 274H872" stroke="#d0fbff" stroke-width="3"/>
      <path d="M810 462H872" stroke="#d0fbff" stroke-width="3"/>

      <g opacity="0.92">
        <rect x="560" y="212" width="140" height="60" rx="10" fill="#0f2b45" stroke="#d0fbff" stroke-width="4"/>
        <rect x="602" y="232" width="56" height="20" rx="5" fill="none" stroke="#8fe7ff" stroke-width="2"/>
        <rect x="560" y="464" width="140" height="60" rx="10" fill="#0f2b45" stroke="#d0fbff" stroke-width="4"/>
        <rect x="602" y="484" width="56" height="20" rx="5" fill="none" stroke="#8fe7ff" stroke-width="2"/>
      </g>

      <path d="M194 530C300 564 422 582 566 582C684 582 794 552 872 490"
        stroke="#b6f4ff" stroke-width="2.4" opacity="0.64"/>
      <path d="M202 548C328 588 450 604 590 604C694 604 798 574 880 506"
        stroke="#8fe7ff" stroke-width="1.4" stroke-dasharray="7 12" opacity="0.5"/>

      <path d="M94 368H38" stroke="#9fefff" stroke-width="2" opacity="0.7"/>
      <path d="M936 368H880" stroke="#9fefff" stroke-width="2" opacity="0.7"/>
      <path d="M630 212V166" stroke="#9fefff" stroke-width="2" opacity="0.7"/>
      <path d="M630 524V570" stroke="#9fefff" stroke-width="2" opacity="0.7"/>
    </g>
  </g>

  <rect width="1200" height="900" fill="url(#vignette)"/>
</svg>
