<svg xmlns="http://www.w3.org/2000/svg" viewBox="0 0 1200 900" width="1200" height="900" role="img" aria-label="Blueprint illustration of a vertical spinner combat robot">
  <defs>
    <linearGradient id="bg-gradient" x1="0" y1="0" x2="1" y2="1">
      <stop offset="0%" stop-color="#0b2340"/>
      <stop offset="55%" stop-color="#0f3458"/>
      <stop offset="100%" stop-color="#08182d"/>
    </linearGradient>
    <radialGradient id="vignette" cx="50%" cy="45%" r="70%">
      <stop offset="55%" stop-color="#000000" stop-opacity="0"/>
      <stop offset="100%" stop-color="#01070f" stop-opacity="0.46"/>
    </radialGradient>
    <pattern id="grid-major" width="120" height="120" patternUnits="userSpaceOnUse">
      <path d="M120 0H0V120" fill="none" stroke="#8fe7ff" stroke-opacity="0.14" stroke-width="1"/>
    </pattern>
    <pattern id="grid-minor" width="24" height="24" patternUnits="userSpaceOnUse">
      <path d="M24 0H0V24" fill="none" stroke="#8fe7ff" stroke-opacity="0.06" stroke-width="1"/>
    </pattern>
    <filter id="glow" x="-20%" y="-20%" width="140%" height="140%">
      <feGaussianBlur stdDeviation="3.5" result="blur"/>
      <feMerge>
        <feMergeNode in="blur"/>
        <feMergeNode in="SourceGraphic"/>
      </feMerge>
    </filter>
    <linearGradient id="body-fill" x1="0" y1="0" x2="1" y2="1">
      <stop offset="0%" stop-color="#133b63" stop-opacity="0.92"/>
      <stop offset="100%" stop-color="#0d2744" stop-opacity="0.72"/>
    </linearGradient>
    <linearGradient id="weapon-fill" x1="0" y1="0" x2="0" y2="1">
      <stop offset="0%" stop-color="#1d658f" stop-opacity="0.94"/>
      <stop offset="100%" stop-color="#10324e" stop-opacity="0.78"/>
    </linearGradient>
  </defs>

  <rect width="1200" height="900" fill="url(#bg-gradient)"/>
  <rect width="1200" height="900" fill="url(#grid-minor)"/>
  <rect width="1200" height="900" fill="url(#grid-major)"/>

  <g stroke="#b6f4ff" stroke-linecap="round" stroke-linejoin="round" fill="none">
    <g opacity="0.48">
      <path d="M102 684H1098" stroke-width="2" stroke-dasharray="10 14"/>
      <path d="M234 134V780" stroke-width="1.6" stroke-dasharray="7 15"/>
      <path d="M850 120V766" stroke-width="1.6" stroke-dasharray="7 15"/>
      <circle cx="304" cy="282" r="92" stroke-width="1.2" stroke-dasharray="7 12"/>
      <circle cx="946" cy="248" r="118" stroke-width="1.4" stroke-dasharray="8 12"/>
      <circle cx="946" cy="248" r="72" stroke-width="1.1" stroke-dasharray="6 10"/>
      <path d="M128 564C266 490 414 446 572 438" stroke-width="1.4" stroke-dasharray="7 12"/>
      <path d="M754 548C876 516 986 456 1086 362" stroke-width="1.4" stroke-dasharray="7 12"/>
    </g>
    <g opacity="0.32">
      <path d="M124 208H304" stroke-width="1.2"/>
      <path d="M934 688H1080" stroke-width="1.2"/>
      <path d="M1020 328V500" stroke-width="1.2"/>
      <circle cx="1020" cy="328" r="5" fill="#b6f4ff" stroke="none"/>
      <circle cx="176" cy="614" r="5" fill="#b6f4ff" stroke="none"/>
      <path d="M176 614V744" stroke-width="1.2"/>
    </g>
  </g>

  <g filter="url(#glow)">
    <g transform="translate(152 180)">
      <path d="M174 488L252 382L430 350L656 344L768 360L824 402L846 452L780 474L542 484L282 490Z"
        fill="url(#body-fill)" stroke="#d0fbff" stroke-width="4"/>

      <path d="M142 488L202 420L262 394L270 454L230 490Z"
        fill="#102e4a" stroke="#d0fbff" stroke-width="4" opacity="0.84"/>

      <circle cx="250" cy="388" r="120" fill="url(#weapon-fill)" stroke="#d0fbff" stroke-width="4"/>
      <circle cx="250" cy="388" r="84" fill="none" stroke="#9fefff" stroke-width="2.6" opacity="0.88"/>
      <circle cx="250" cy="388" r="22" fill="#0d2840" stroke="#d0fbff" stroke-width="4"/>
      <circle cx="250" cy="388" r="7" fill="#d0fbff" stroke="none"/>

      <path d="M250 268L298 254L344 286L322 324L250 316Z"
        fill="#1e739d" stroke="#d0fbff" stroke-width="4"/>
      <path d="M250 268L292 278L311 310" stroke="#c3f8ff" stroke-width="2" opacity="0.82"/>

      <path d="M250 268V510" stroke="#8fe7ff" stroke-width="2" opacity="0.65" stroke-dasharray="8 10"/>
      <path d="M130 388H370" stroke="#8fe7ff" stroke-width="2" opacity="0.65" stroke-dasharray="8 10"/>
      <circle cx="250" cy="388" r="104" fill="none" stroke="#8fe7ff" stroke-width="1.4" opacity="0.45" stroke-dasharray="6 10"/>

      <path d="M310 402L448 380L650 374L748 388L790 414L804 446L770 460L548 468L332 474Z"
        stroke="#9fefff" stroke-width="2.4" opacity="0.88"/>

      <path d="M392 356L392 480" stroke="#8be7ff" stroke-width="2" opacity="0.75"/>
      <path d="M504 348L504 478" stroke="#8be7ff" stroke-width="2" opacity="0.75"/>
      <path d="M618 346L618 474" stroke="#8be7ff" stroke-width="2" opacity="0.75"/>
      <path d="M730 368L730 468" stroke="#8be7ff" stroke-width="2" opacity="0.75"/>

      <path d="M368 420H780" stroke="#c3f8ff" stroke-width="1.6" stroke-dasharray="6 10" opacity="0.75"/>
      <path d="M344 436H790" stroke="#c3f8ff" stroke-width="1.2" stroke-dasharray="4 8" opacity="0.52"/>

      <path d="M766 360L824 392L844 448" stroke="#d0fbff" stroke-width="4"/>
      <path d="M802 394H850" stroke="#d0fbff" stroke-width="3"/>
      <path d="M822 442H872" stroke="#d0fbff" stroke-width="3"/>

      <g opacity="0.92">
        <circle cx="474" cy="492" r="58" fill="#0f2b45" stroke="#d0fbff" stroke-width="4"/>
        <circle cx="474" cy="492" r="24" fill="none" stroke="#8fe7ff" stroke-width="2"/>
        <circle cx="718" cy="492" r="72" fill="#0f2b45" stroke="#d0fbff" stroke-width="4"/>
        <circle cx="718" cy="492" r="30" fill="none" stroke="#8fe7ff" stroke-width="2"/>
      </g>

      <path d="M156 510C248 546 372 566 538 568C670 570 780 538 854 478"
        stroke="#b6f4ff" stroke-width="2.4" opacity="0.64"/>
      <path d="M164 526C274 572 402 590 564 592C688 594 792 564 864 492"
        stroke="#8fe7ff" stroke-width="1.4" stroke-dasharray="7 12" opacity="0.5"/>

      <path d="M114 388H58" stroke="#9fefff" stroke-width="2" opacity="0.7"/>
      <path d="M902 446H846" stroke="#9fefff" stroke-width="2" opacity="0.7"/>
      <path d="M474 552V598" stroke="#9fefff" stroke-width="2" opacity="0.7"/>
      <path d="M718 570V620" stroke="#9fefff" stroke-width="2" opacity="0.7"/>
    </g>
  </g>

  <rect width="1200" height="900" fill="url(#vignette)"/>
</svg>
